<?xml version="1.0" encoding="utf-8"?>
<svg viewBox="0 0 500 500" xmlns="http://www.w3.org/2000/svg">
  <g style="visibility: hidden;">
    <path d="M 245.392 322.533 L 248.187 325.324 L 376.149 249.685 L 248.187 37.365 L 245.392 46.866 Z" style="stroke-width: 0px; stroke: rgb(0, 0, 0);" fill="#343434"/>
    <path d="M 248.188 325.325 L 248.188 37.365 L 120.226 249.685 Z" style="stroke-width: 0px; stroke: rgb(0, 0, 0);" fill="#8C8C8C"/>
    <path d="M 246.611 449.671 L 248.187 454.271 L 376.226 273.952 L 248.188 349.552 L 246.612 351.473 Z" style="stroke-width: 0px; stroke: rgb(0, 0, 0);" fill="#3C3C3B"/>
    <path d="M 120.226 273.95 L 248.188 454.27 L 248.188 349.55 Z" style="stroke-width: 0px; stroke: rgb(0, 0, 0);" fill="#8C8C8C"/>
    <path d="M 248.907 191.525 L 248.907 325.324 L 376.867 249.686 Z" style="stroke-width: 0px; stroke: rgb(0, 0, 0);" fill="#141414"/>
    <path d="M 248.186 191.525 L 120.226 249.685 L 248.186 325.323 Z" style="stroke-width: 0px; stroke: rgb(0, 0, 0);" fill="#393939"/>
  </g>
  <g transform="matrix(0.967568, 0, 0, 0.967568, 3.207102, -2.095058)" style="">
    <g>
      <polygon style="stroke: rgb(0, 0, 0); fill: rgb(255, 255, 255);" points="274.759 132.645 204.797 127.865 120.93 134.818 50.534 180.879 13.598 246.93 9.253 283.866 31.849 310.808 152.652 317.76 248.252 306.028 336.029 282.128 413.378 285.604 480.732 297.771 502.025 264.311 472.91 220.857 449.88 176.968 365.578 136.99"/>
      <polygon style="stroke: rgb(0, 0, 0);" points="274.726 139.743 290.3 126.839 329.903 127.284 341.917 158.877 356.156 228.737 340.137 260.775 302.759 319.956 295.64 366.678 308.099 386.702 249.363 387.592 233.344 333.75 248.918 222.508"/>
      <polygon style="stroke: rgb(0, 0, 0);" points="407.772 190.618 404.658 168.815 424.681 148.791 434.026 177.714"/>
      <polygon style="stroke: rgb(0, 0, 0);" points="323.673 289.698 341.027 331.97 386.859 386.702 439.365 384.032 434.471 375.133 413.557 358.224 388.194 285.693"/>
      <polygon style="stroke: rgb(0, 0, 0);" points="170.158 320.846 168.378 362.673 187.512 384.032 123.881 385.367 102.968 323.071 114.537 306.162"/>
      <polygon style="stroke: rgb(0, 0, 0);" points="71.375 388.037 65.59 367.123 125.216 287.918 127.886 256.325 39.782 267.895 25.988 300.377 15.308 386.257"/>
      <path d="M509.591,258.101l-26.677-26.871c-1.43-11.451-8.872-49.49-45.697-71.701c-0.166-0.101-0.336-0.185-0.507-0.272 c-2.405-7.024-4.752-12.966-4.913-13.374c-0.933-2.357-2.893-4.157-5.319-4.888c-2.425-0.731-5.054-0.311-7.134,1.137 c-0.637,0.445-3.577,2.532-7.178,5.662c-9.716-4.694-37.73-16.951-75.533-22.598c-2.303-2.366-5.063-4.328-8.253-5.826 c-9.868-4.629-28.037-5.903-49.438,4.4c-0.736,0.355-1.457,0.794-2.172,1.273c-49.046-9.468-93.149-10.293-131.093-2.427 c-32.464,6.731-60.69,19.824-83.892,38.916C10.994,203.33,0,260.804,0,272.791c0,19.122,10.964,32.28,16.602,37.783 c-9.771,46.924-7.84,76.343-7.733,77.822c0.314,4.337,3.923,7.695,8.273,7.695h53.08c4.58,0,8.294-3.712,8.294-8.294 c0-8.21-2.389-14.204-5.426-18.355c5.876-6.669,15.675-18.049,26.031-31.177c2.128,14.674,6.764,34.812,16.892,53.486 c1.45,2.674,4.249,4.339,7.291,4.339h61.927c2.289,0,4.477-0.945,6.044-2.615c1.568-1.669,2.375-3.91,2.233-6.196 c-0.051-0.802-0.57-8.049-3.319-15.594c-3.689-10.118-9.255-14.89-14.358-17.054v-29.048c17.282-0.284,35.398-2.296,51.522-7.303 c1.157,36.703,11.303,70.091,11.88,71.962c1.073,3.477,4.287,5.848,7.925,5.848h61.927c4.447,0,8.101-3.507,8.287-7.949 c0.048-1.146,0.255-11.407-7.009-18.98c-2.109-2.198-5.371-4.672-10.142-6.117c1.748-11.148,7.551-28.408,15.864-46.741 c1.268-2.797,2.563-5.541,3.875-8.234c11.252,22.256,34.586,64.05,59.918,83.591c3.76,2.899,8.421,4.432,13.478,4.432h48.424 c2.229,0,4.366-0.898,5.925-2.49c1.56-1.592,2.413-3.748,2.367-5.976c-0.208-9.994-6.802-24.684-23.971-25.753 c-5.812-6.378-18.096-37.898-27.405-67.19c9.351,1.062,17.625,2.327,23.267,3.821c25.496,6.749,53.375,9.005,54.55,9.098 c0.219,0.018,0.437,0.025,0.654,0.025c2.598,0,5.06-1.22,6.634-3.318l26.54-35.387 C512.811,265.628,512.492,261.022,509.591,258.101z M413.505,170.898c1.652-2.752,4.236-5.61,6.867-8.127 c1.327,3.784,2.727,8.021,3.758,11.762c-2.214,1.768-6.591,4.306-11.684,6.817C412.027,177.278,412.146,173.164,413.505,170.898z M55.252,364.508c-1.963,2.146-3.071,5.034-2.244,7.822c0.807,2.724,2.556,4.716,5.26,5.487c0.326,0.205,0.985,0.698,1.654,1.686 H25.247c0.018-4.866,0.224-11.919,0.971-20.827c1.392-16.601,5.001-43.224,14.284-75.78c0.732-2.565,2.651-4.731,5.134-5.791 c9.308-3.974,27.783-9.637,45.084-12.773c25.519-4.622,32.139-1.045,33.132-0.349C123.797,282.603,81.757,335.511,55.252,364.508z M128.364,379.504c-11.832-24.368-13.984-51.172-14.375-59.707c9.888,2.256,26.403,4.759,45.252,5.562v35.899 c0,4.581,3.713,8.294,8.294,8.294c3.862,0,6.316,5.004,7.752,9.952H128.364z M235.125,254.812 c-1.764,9.164-3.429,17.818-4.942,25.15c-1.392,6.748-2.229,13.73-2.639,20.753c-33.594,12.49-81.138,8.381-104.212,4.079 c17.091-26.623,17.107-36.878,17.107-40.849c0-5.737-2.682-10.668-7.551-13.885c-19.756-13.045-78.816,5.408-93.766,11.789 c-7.14,3.048-12.453,9.061-14.573,16.498c-1.129,3.96-2.175,7.833-3.153,11.622c-2.611-4.495-4.81-10.316-4.81-17.179 c0-8.649,9.689-60.556,55.737-98.449c45.415-37.369,110.255-48.973,192.809-34.572 C253.762,161.727,245.115,202.898,235.125,254.812z M283.096,370.364c0.14,4.478,3.811,8.035,8.29,8.035 c2.296,0,4.109,0.364,5.487,1.106H253.45c-4.166-15.817-14.361-60.611-7.02-96.19c1.535-7.44,3.211-16.148,4.985-25.367 c4.586-23.832,10.294-53.491,16.758-77.337c9.864-36.388,16.696-41.281,17.965-41.892c12.908-6.215,27.385-7.994,35.2-4.328 c3.33,1.563,5.311,4.013,6.237,7.714c0.907,3.627,2.434,8.552,4.203,14.256c7.661,24.7,23.603,76.096,6.825,92.873 C313.885,273.949,282.242,343.005,283.096,370.364z M424.086,378.397c2.282,0,3.888,0.438,5.065,1.106h-35.8 c-1.34,0-2.529-0.348-3.347-0.98c-27.353-21.099-53.837-74.643-60.388-88.49c7.928,0.29,29.85,1.19,51.17,2.929 c0.398,1.304,6.326,20.592,13.696,40.243C408.727,371.196,415.877,378.397,424.086,378.397z M473.319,290.636 c-8.764-0.903-28.861-3.34-47.111-8.17c-19.386-5.132-64.289-7.659-86.443-8.63c3.666-5.174,7.232-9.542,10.564-12.875 c23.857-23.857,7.227-77.479-2.71-109.517c-0.901-2.906-1.734-5.592-2.438-7.956c25.291,4.914,45.023,12.639,55.199,17.154 c-0.383,0.568-0.752,1.142-1.1,1.722c-7.099,11.832-1.903,29.839-0.79,33.329c0.703,2.203,2.295,4.013,4.389,4.992 c1.111,0.52,2.311,0.781,3.512,0.781c1.063,0,2.128-0.205,3.132-0.615c0.302-0.123,7.482-3.061,14.596-6.859 c6.579-3.511,12.708-7.38,15.542-12.149c12.157,10.776,18.886,23.82,22.582,34.35c0.004,0.218,0.01,0.437,0.032,0.657 c0.359,3.587-4.566,13.424-9.206,20.002c-2.646,3.739-1.76,8.914,1.978,11.561c1.455,1.03,3.127,1.525,4.785,1.525 c2.6,0,5.161-1.22,6.776-3.503c0.751-1.06,1.903-2.749,3.206-4.854l22.954,23.12L473.319,290.636z" style=""/>
      <polygon style="stroke: rgb(0, 0, 0);" points="500.326 531.91"/>
      <polygon style="stroke: rgb(0, 0, 0);" points="303.873 63.552"/>
      <polygon style="fill: rgb(216, 216, 216); stroke: rgb(0, 0, 0);" points="319.078 547.088"/>
    </g>
  </g>
</svg>